<svg version="1.1" id="Layer_1" xmlns="http://www.w3.org/2000/svg" xmlns:xlink="http://www.w3.org/1999/xlink" x="0px" y="0px" viewBox="0 0 512 512" style="enable-background:new 0 0 512 512;" xml:space="preserve">
<style type="text/css">
	.st0{fill:#404040;}
</style>
<g>
	<g>
		<g>
			<path class="st0" d="M209,25.5c-10.3,10.3-10.3,27.1,0,37.5c10.3,10.3,27.1,10.3,37.5,0c10.3-10.3,10.3-27.1,0-37.5
				C236.1,15.1,219.3,15.1,209,25.5z" id="id_117" style="fill: rgb(255, 255, 255);"></path>
			<path class="st0" d="M279.5,96c-10.4,10.3-10.4,27.1,0,37.5c10.3,10.3,27.1,10.3,37.5,0c10.3-10.3,10.3-27.1,0-37.5
				C306.6,85.6,289.8,85.6,279.5,96z" id="id_118" style="fill: rgb(255, 255, 255);"></path>
			<path class="st0" d="M350,166.5c-10.3,10.3-10.3,27.1,0,37.5c10.3,10.3,27.1,10.3,37.4,0c10.4-10.3,10.4-27.1,0-37.5
				C377.1,156.1,360.3,156.1,350,166.5z" id="id_119" style="fill: rgb(255, 255, 255);"></path>
			<path class="st0" d="M420.5,237c-10.4,10.3-10.4,27.1,0,37.5c10.3,10.3,27.1,10.3,37.4,0c10.4-10.3,10.4-27.1,0-37.5
				C447.6,226.6,430.8,226.6,420.5,237z" id="id_120" style="fill: rgb(255, 255, 255);"></path>
		</g>
		<g>
			<path class="st0" d="M209,485.9c-10.3-10.3-10.3-27.1,0-37.5c10.3-10.3,27.1-10.3,37.5,0c10.3,10.3,10.3,27.1,0,37.5
				C236.1,496.2,219.3,496.2,209,485.9z" id="id_121" style="fill: rgb(255, 255, 255);"></path>
			<path class="st0" d="M279.5,415.4c-10.4-10.3-10.4-27.1,0-37.5c10.3-10.3,27.1-10.3,37.5,0c10.3,10.4,10.3,27.1,0,37.5
				C306.6,425.7,289.8,425.7,279.5,415.4z" id="id_122" style="fill: rgb(255, 255, 255);"></path>
			<path class="st0" d="M350,344.9c-10.3-10.3-10.3-27.1,0-37.4c10.3-10.3,27.1-10.3,37.4,0c10.4,10.4,10.4,27.1,0,37.4
				C377.1,355.3,360.3,355.3,350,344.9z" id="id_123" style="fill: rgb(255, 255, 255);"></path>
			<path class="st0" d="M420.5,274.4c-10.4-10.3-10.4-27.1,0-37.5c10.3-10.3,27.1-10.3,37.4,0c10.4,10.3,10.4,27.1,0,37.5
				C447.6,284.8,430.8,284.8,420.5,274.4z" id="id_124" style="fill: rgb(255, 255, 255);"></path>
		</g>
	</g>
	<g>
		<g>
			<path class="st0" d="M53.4,25.5c-10.3,10.3-10.3,27.1,0,37.5c10.3,10.3,27.1,10.3,37.5,0c10.3-10.3,10.3-27.1,0-37.5
				C80.5,15.1,63.8,15.1,53.4,25.5z" id="id_125" style="fill: rgb(255, 255, 255);"></path>
			<path class="st0" d="M123.9,96c-10.3,10.3-10.3,27.1,0,37.5c10.3,10.3,27.1,10.3,37.5,0c10.3-10.3,10.3-27.1,0-37.5
				C151,85.6,134.2,85.6,123.9,96z" id="id_126" style="fill: rgb(255, 255, 255);"></path>
			<path class="st0" d="M194.4,166.5c-10.4,10.3-10.4,27.1,0,37.5c10.3,10.3,27.1,10.3,37.5,0c10.3-10.3,10.3-27.1,0-37.5
				C221.5,156.1,204.7,156.1,194.4,166.5z" id="id_127" style="fill: rgb(255, 255, 255);"></path>
			<path class="st0" d="M264.9,237c-10.3,10.3-10.3,27.1,0,37.5c10.3,10.3,27.1,10.3,37.4,0c10.4-10.3,10.4-27.1,0-37.5
				C292,226.6,275.2,226.6,264.9,237z" id="id_128" style="fill: rgb(255, 255, 255);"></path>
		</g>
		<g>
			<path class="st0" d="M53.4,485.9c-10.3-10.3-10.3-27.1,0-37.5c10.3-10.3,27.1-10.3,37.5,0c10.3,10.3,10.3,27.1,0,37.5
				C80.5,496.2,63.8,496.2,53.4,485.9z" id="id_129" style="fill: rgb(255, 255, 255);"></path>
			<path class="st0" d="M123.9,415.4c-10.3-10.3-10.3-27.1,0-37.5c10.3-10.3,27.1-10.3,37.5,0c10.3,10.4,10.3,27.1,0,37.5
				C151,425.7,134.2,425.7,123.9,415.4z" id="id_130" style="fill: rgb(255, 255, 255);"></path>
			<path class="st0" d="M194.4,344.9c-10.4-10.3-10.4-27.1,0-37.4c10.3-10.3,27.1-10.3,37.5,0c10.3,10.4,10.3,27.1,0,37.4
				C221.5,355.3,204.7,355.3,194.4,344.9z" id="id_131" style="fill: rgb(255, 255, 255);"></path>
			<path class="st0" d="M264.9,274.4c-10.3-10.3-10.3-27.1,0-37.5c10.3-10.3,27.1-10.3,37.4,0c10.4,10.3,10.4,27.1,0,37.5
				C292,284.8,275.2,284.8,264.9,274.4z" id="id_132" style="fill: rgb(255, 255, 255);"></path>
		</g>
	</g>
</g>
</svg>